<?xml version="1.0" encoding="UTF-8"?>
<svg id="_레이어_1" data-name="레이어 1" xmlns="http://www.w3.org/2000/svg" viewBox="0 0 2898.33 2064.73">
  <defs>
    <style>
      .cls-1 {
        fill: #4354f0;
      }
    </style>
  </defs>
  <path class="cls-1" d="m911.33,1234.54h0c-18.26-47.49-71.56-71.2-119.05-52.94L59.1,1462.69c-47.5,18.26-71.2,71.56-52.95,119.05,18.26,47.5,71.56,71.2,119.06,52.94l.07-.03,293.41-112.05c18.48-7.1,39.21,2.12,46.32,20.6h0s42.59,110.81,42.59,110.81l20.83,54.17c15.28,39.76,58.27,60.64,98.45,49.17.91-.26,1.81-.6,2.71-.89,1.67-.53,3.34-1.07,4.99-1.72,1.33-.53,2.61-1.14,3.9-1.73,1.21-.55,2.44-1.08,3.62-1.68,1.26-.65,2.45-1.39,3.67-2.1,1.12-.66,2.27-1.29,3.35-1.99,1.17-.76,2.28-1.6,3.4-2.42,1.04-.76,2.1-1.48,3.1-2.28,1.07-.87,2.08-1.8,3.11-2.71.94-.84,1.92-1.65,2.83-2.53.98-.96,1.88-2,2.82-3,.85-.92,1.73-1.81,2.53-2.76.89-1.05,1.68-2.17,2.51-3.26.74-.98,1.53-1.95,2.23-2.96.78-1.13,1.47-2.31,2.19-3.48.65-1.05,1.33-2.06,1.93-3.14.68-1.2,1.25-2.46,1.86-3.69.53-1.09,1.11-2.16,1.61-3.27.56-1.27,1.01-2.58,1.51-3.88.43-1.13.9-2.24,1.29-3.38.44-1.33.77-2.7,1.14-4.05.31-1.15.68-2.29.95-3.47.31-1.37.51-2.78.76-4.17.2-1.18.46-2.34.62-3.54.18-1.44.25-2.9.36-4.35.08-1.17.23-2.32.27-3.49.05-1.51-.03-3.04-.07-4.56-.03-1.13,0-2.25-.07-3.39-.11-1.58-.35-3.18-.56-4.77-.13-1.07-.2-2.14-.38-3.21-.3-1.78-.74-3.56-1.17-5.34-.2-.87-.34-1.74-.57-2.62-.72-2.64-1.58-5.28-2.58-7.89l-63.42-164.98c-7.1-18.48,2.12-39.22,20.6-46.32l220.49-84.75c47.49-18.26,71.19-71.56,52.94-119.05"/>
  <path class="cls-1" d="m281.64,1144.16h0c-3.62-9.41,1.08-19.98,10.49-23.6l69.37-26.66c9.41-3.62,19.97,1.08,23.59,10.49s-1.08,19.98-10.49,23.59l-69.38,26.67c-9.41,3.62-19.97-1.08-23.59-10.49m45.76,160.77l131.41-50.51c85.83-32.99,128.66-129.32,95.67-215.14-32.99-85.83-129.31-128.66-215.14-95.67l-131.41,50.51c-85.83,32.99-128.66,129.31-95.67,215.14,32.99,85.82,129.31,128.66,215.14,95.67"/>
  <path class="cls-1" d="m1016.88,1767.76l-112.98-293.94c-17.14-44.58-67.17-66.83-111.75-49.69-44.58,17.14-66.83,67.17-49.69,111.75l9.17,23.87c6.87,17.88-2.05,37.94-19.93,44.82l-232.14,89.23c-22.04,8.47-46.78-2.53-55.26-24.58l-5.14-13.39c-17.57-45.7-69.88-70.13-115.23-51.71-43.98,17.86-65.75,67.74-48.63,112.25l112.36,292.33c17.31,45.03,67.84,67.5,112.86,50.19,3.4-1.31,6.64-2.87,9.78-4.54,3.56-.9,7.1-1.95,10.62-3.3l435.32-167.33c1.85-.71,3.6-1.56,5.38-2.38,1.86-.58,3.73-1.12,5.58-1.83,44.58-17.14,66.83-67.16,49.69-111.75m-210.05-1.96l-273.11,104.98c-9.23,3.55-20.16-.19-24.19-9.22-4.29-9.63.4-20.76,10.11-24.5l273.11-104.98c9.23-3.54,20.16.19,24.19,9.22,4.3,9.63-.4,20.77-10.11,24.5"/>
  <path class="cls-1" d="m346.55,705.69c-13.63,5.24-28.93-1.56-34.17-15.19l-32.75-85.21c-20.06-52.18-78.62-78.22-130.81-58.16-52.18,20.06-78.22,78.62-58.16,130.81l22.32,58.08,12.69,33.01c3.99,10.38-1.19,22.04-11.57,26.03l-.15.06-2.16.83c-41.99,16.14-66.09,58.46-61.09,101.18.09.78.16,1.57.28,2.36.26,1.96.65,3.91,1.05,5.87.29,1.36.55,2.72.89,4.08.4,1.61.89,3.2,1.38,4.8.31,1.01.53,2.03.88,3.04.19.55.44,1.06.64,1.6.2.57.34,1.13.55,1.7.42,1.09.95,2.1,1.4,3.16.63,1.47,1.25,2.96,1.95,4.38.75,1.55,1.57,3.04,2.4,4.53.76,1.38,1.5,2.76,2.32,4.08.89,1.44,1.84,2.82,2.81,4.2.87,1.27,1.74,2.55,2.68,3.76,1.02,1.32,2.1,2.58,3.18,3.85.99,1.16,1.96,2.33,2.99,3.43,1.14,1.21,2.34,2.34,3.54,3.49,1.08,1.04,2.15,2.1,3.27,3.08,1.24,1.09,2.55,2.09,3.85,3.11,1.17.92,2.32,1.86,3.53,2.73,1.35.96,2.74,1.83,4.13,2.71,1.24.79,2.47,1.62,3.75,2.36,1.43.83,2.91,1.56,4.38,2.3,1.31.66,2.6,1.37,3.94,1.97,1.51.69,3.07,1.27,4.61,1.88,1.35.53,2.7,1.11,4.07,1.58,1.59.55,3.22.97,4.83,1.44,1.39.4,2.75.84,4.16,1.17,1.65.39,3.34.66,5.02.97,1.41.26,2.81.57,4.23.76,1.72.23,3.46.34,5.2.48,1.41.11,2.81.29,4.21.35,1.81.07,3.62-.01,5.43-.05,1.37-.03,2.73.01,4.11-.07,1.91-.12,3.82-.4,5.72-.63,1.29-.15,2.57-.23,3.86-.44,2.12-.35,4.23-.87,6.33-1.37,1.07-.25,2.16-.42,3.24-.71,3.18-.86,6.35-1.89,9.49-3.09l378.55-145.51c49.71-19.11,74.52-74.9,55.42-124.61-19.11-49.72-74.9-74.53-124.62-55.42"/>
  <path class="cls-1" d="m2335.42,1181.57h0c-52.19,20.06-110.75-5.98-130.81-58.17l-89.35-232.46c-20.06-52.18,5.98-110.74,58.16-130.8,52.18-20.06,110.75,5.98,130.8,58.17l89.36,232.45c20.05,52.18-5.99,110.74-58.17,130.8"/>
  <path class="cls-1" d="m2273.58,504.3c-21.5-50.5-80.45-73.57-131.69-53.87l-97.23,37.37c-20.25,7.79-42.99-2.33-50.77-22.58l-79.06-205.66c-20.05-52.19-78.62-78.23-130.8-58.17-52.18,20.06-78.23,78.62-58.17,130.81l79.06,205.67c7.79,20.25-2.33,42.98-22.58,50.77l-56.71,21.8c-52.18,20.05-78.22,78.62-58.16,130.8,20.06,52.19,78.62,78.22,130.81,58.16,15.28-5.87,32.42,1.76,38.3,17.04l107.41,279.44c19.69,51.24,76.3,79.56,128.21,61.7,54.49-18.75,82.14-78.74,61.64-132.07l-104.82-272.7c-7.79-20.25,2.32-42.98,22.58-50.77l165.21-63.5c53.32-20.49,79.35-81.21,56.78-134.23"/>
  <path class="cls-1" d="m1823.77,1577.94h0c-52.19,20.06-110.75-5.98-130.81-58.17l-432.91-1126.25c-20.05-52.18,5.99-110.75,58.17-130.81,52.19-20.06,110.74,5.99,130.81,58.17l432.91,1126.25c20.05,52.18-5.99,110.74-58.17,130.8"/>
  <path class="cls-1" d="m2697.34,1134.57h0c-52.19,20.06-110.75-5.98-130.81-58.17l-360.87-938.83c-20.06-52.19,5.98-110.74,58.16-130.81,52.19-20.06,110.75,5.99,130.81,58.17l360.87,938.83c20.05,52.18-5.99,110.74-58.17,130.8"/>
  <path class="cls-1" d="m1441.46,1251.44l-148.59-386.58c-4.77-12.39-1.57-26.69,8.57-35.25,1.12-.94,2.15-1.95,3.22-2.94.67-.62,1.38-1.22,2.04-1.86,2.03-1.98,4-4.02,5.85-6.15s3.58-4.34,5.24-6.61c.54-.74,1.03-1.51,1.55-2.26,1.09-1.56,2.15-3.14,3.14-4.76.56-.91,1.07-1.84,1.6-2.76.87-1.53,1.71-3.08,2.5-4.65.49-.98.97-1.97,1.43-2.96.73-1.6,1.42-3.22,2.07-4.84.4-.99.8-1.97,1.17-2.97.65-1.78,1.22-3.59,1.77-5.41.26-.87.56-1.73.8-2.61.74-2.7,1.39-5.44,1.9-8.2.51-2.76.89-5.55,1.17-8.36.09-.91.12-1.83.18-2.74.14-1.92.26-3.84.29-5.77.01-1.07-.01-2.16-.03-3.24-.03-1.79-.1-3.59-.22-5.38-.08-1.13-.18-2.25-.3-3.38-.19-1.79-.44-3.59-.73-5.39-.18-1.09-.34-2.19-.56-3.27-.38-1.94-.85-3.88-1.34-5.82-.24-.92-.43-1.86-.7-2.78-.82-2.85-1.74-5.69-2.83-8.52-20.06-52.18-78.62-78.22-130.81-58.16l-78.88,30.31c-24.52,9.43-52.02-2.81-61.45-27.32l-77.55-201.74c-20.05-52.19-78.62-78.23-130.8-58.17-52.18,20.06-78.23,78.62-58.17,130.8l31.1,80.91,46.45,120.84c9.42,24.52-2.81,52.02-27.32,61.45h0l-133.1,51.57c-52.18,20.05-78.23,78.62-58.17,130.8,20.06,52.19,78.62,78.23,130.8,58.17l51.44-20.17c16.43-6.32,34.86,1.89,41.17,18.31l105.81,275.27c20.06,52.19,78.62,78.23,130.81,58.17s78.22-78.62,58.17-130.8l-109.11-283.88c-4.49-11.67,1.34-24.77,13.02-29.26,11.67-4.49,24.78,1.34,29.26,13.01l149.14,388.01c20.06,52.18,78.63,78.22,130.81,58.16,52.19-20.06,78.23-78.62,58.17-130.81"/>
  <path class="cls-1" d="m2788.13,1250.94c-60.86,0-110.2,49.34-110.2,110.2s49.34,110.2,110.2,110.2,110.2-49.34,110.2-110.2-49.34-110.2-110.2-110.2"/>
  <path class="cls-1" d="m1460.79,1462c-60.86,0-110.2,49.34-110.2,110.2s49.34,110.2,110.2,110.2,110.2-49.34,110.2-110.2-49.34-110.2-110.2-110.2"/>
</svg>